# Blender v2.79 (sub 0) OBJ File: 'arrow.blend'
# www.blender.org
mtllib arrow.mtl
o Cylinder
v 0.000000 -0.044285 -0.010632
v -0.016947 -0.040914 -0.010632
v -0.031314 -0.031314 -0.010632
v -0.040914 -0.016947 -0.010632
v -0.044285 0.000000 -0.010632
v -0.040914 0.016947 -0.010632
v -0.031314 0.031314 -0.010632
v -0.016947 0.040914 -0.010632
v -0.000000 0.044285 -0.010632
v 0.016947 0.040914 -0.010632
v 0.031314 0.031314 -0.010632
v 0.040914 0.016947 -0.010632
v 0.044285 -0.000000 -0.010632
v 0.040914 -0.016947 -0.010632
v 0.031314 -0.031314 -0.010632
v 0.016947 -0.040914 -0.010632
v 0.000000 0.000000 0.205978
v 0.000000 -0.038214 -0.210632
v 0.000000 -0.044285 -0.197186
v -0.014624 -0.035305 -0.210632
v -0.016947 -0.040914 -0.197186
v -0.027021 -0.027021 -0.210632
v -0.031314 -0.031314 -0.197186
v -0.035305 -0.014624 -0.210632
v -0.040914 -0.016947 -0.197186
v -0.038214 0.000000 -0.210632
v -0.044285 0.000000 -0.197186
v -0.035305 0.014624 -0.210632
v -0.040914 0.016947 -0.197186
v -0.027021 0.027021 -0.210632
v -0.031314 0.031314 -0.197186
v -0.014624 0.035305 -0.210632
v -0.016947 0.040914 -0.197186
v -0.000000 0.038214 -0.210632
v -0.000000 0.044285 -0.197186
v 0.014624 0.035305 -0.210632
v 0.016947 0.040914 -0.197186
v 0.027021 0.027021 -0.210632
v 0.031314 0.031314 -0.197186
v 0.035305 0.014624 -0.210632
v 0.040914 0.016947 -0.197186
v 0.038214 0.000000 -0.210632
v 0.044285 -0.000000 -0.197186
v 0.035305 -0.014624 -0.210632
v 0.040914 -0.016947 -0.197186
v 0.027021 -0.027021 -0.210632
v 0.031314 -0.031314 -0.197186
v 0.014624 -0.035305 -0.210632
v 0.016947 -0.040914 -0.197186
v 0.000000 -0.094272 0.009480
v 0.000000 -0.095711 0.019766
v -0.036627 -0.088425 0.019766
v -0.036076 -0.087096 0.009480
v -0.067678 -0.067678 0.019766
v -0.066660 -0.066660 0.009480
v -0.088425 -0.036627 0.019766
v -0.087096 -0.036076 0.009480
v -0.095711 0.000000 0.019766
v -0.094272 0.000000 0.009480
v -0.088425 0.036627 0.019766
v -0.087096 0.036076 0.009480
v -0.067678 0.067678 0.019766
v -0.066660 0.066660 0.009480
v -0.036627 0.088425 0.019766
v -0.036076 0.087096 0.009480
v -0.000000 0.095711 0.019766
v -0.000000 0.094272 0.009480
v 0.036627 0.088425 0.019766
v 0.036076 0.087096 0.009480
v 0.067678 0.067678 0.019766
v 0.066660 0.066660 0.009480
v 0.088425 0.036627 0.019766
v 0.087096 0.036076 0.009480
v 0.095711 -0.000000 0.019766
v 0.094272 -0.000000 0.009480
v 0.088425 -0.036627 0.019766
v 0.087096 -0.036076 0.009480
v 0.067678 -0.067678 0.019766
v 0.066660 -0.066660 0.009480
v 0.036627 -0.088425 0.019766
v 0.036076 -0.087096 0.009480
vn 0.1951 -0.9808 0.0000
vn -0.8315 -0.5556 0.0000
vn -0.9808 -0.1951 0.0000
vn -0.9808 0.1951 0.0000
vn -0.8315 0.5556 0.0000
vn -0.5556 0.8315 0.0000
vn -0.1951 0.9808 0.0000
vn 0.1951 0.9808 0.0000
vn 0.5556 0.8315 0.0000
vn 0.8315 0.5556 0.0000
vn 0.9808 0.1951 0.0000
vn 0.9808 -0.1951 0.0000
vn 0.8315 -0.5556 0.0000
vn 0.5556 -0.8315 0.0000
vn -0.7425 -0.4961 0.4501
vn -0.5556 -0.8315 0.0000
vn -0.1951 -0.9808 0.0000
vn 0.1742 -0.8758 0.4501
vn -0.2109 -0.3156 -0.9252
vn -0.3156 -0.2109 -0.9252
vn -0.3722 -0.0740 -0.9252
vn -0.3156 0.2109 -0.9252
vn -0.2109 0.3156 -0.9252
vn -0.0740 0.3722 -0.9252
vn 0.0740 0.3722 -0.9252
vn 0.4961 0.7425 0.4501
vn 0.2109 0.3156 -0.9252
vn 0.3156 0.2109 -0.9252
vn 0.3722 0.0740 -0.9252
vn 0.3722 -0.0740 -0.9252
vn 0.3156 -0.2109 -0.9252
vn 0.2109 -0.3156 -0.9252
vn 0.0740 -0.3722 -0.9252
vn -0.8758 -0.1742 0.4501
vn -0.3722 0.0740 -0.9252
vn -0.8758 0.1742 0.4501
vn -0.7425 0.4961 0.4501
vn -0.4961 0.7425 0.4501
vn -0.1742 0.8758 0.4501
vn 0.1742 0.8758 0.4501
vn 0.7425 0.4961 0.4501
vn 0.8758 0.1742 0.4501
vn 0.8758 -0.1742 0.4501
vn 0.7425 -0.4961 0.4501
vn 0.4961 -0.7425 0.4501
vn -0.4961 -0.7425 0.4501
vn -0.1742 -0.8758 0.4501
vn -0.1784 -0.8968 -0.4049
vn -0.5080 -0.7603 -0.4049
vn -0.7603 -0.5080 -0.4049
vn -0.8968 -0.1784 -0.4049
vn -0.8968 0.1784 -0.4049
vn -0.7603 0.5080 -0.4049
vn -0.5080 0.7603 -0.4049
vn -0.1784 0.8968 -0.4049
vn 0.1784 0.8968 -0.4049
vn 0.5080 0.7603 -0.4049
vn 0.7603 0.5080 -0.4049
vn 0.8968 0.1784 -0.4049
vn 0.8968 -0.1784 -0.4049
vn 0.7603 -0.5080 -0.4049
vn 0.5080 -0.7603 -0.4049
vn 0.1784 -0.8968 -0.4049
vn -0.0000 0.0000 -1.0000
vn -0.1933 -0.9717 -0.1359
vn -0.5504 -0.8238 -0.1359
vn -0.8238 -0.5504 -0.1359
vn -0.9717 -0.1933 -0.1359
vn -0.9717 0.1933 -0.1359
vn -0.8238 0.5504 -0.1359
vn -0.5504 0.8238 -0.1359
vn -0.1933 0.9717 -0.1359
vn 0.1933 0.9717 -0.1359
vn 0.5504 0.8238 -0.1359
vn 0.8238 0.5504 -0.1359
vn 0.9717 0.1933 -0.1359
vn 0.9717 -0.1933 -0.1359
vn 0.8238 -0.5504 -0.1359
vn 0.5504 -0.8238 -0.1359
vn 0.1933 -0.9717 -0.1359
vn -0.0740 -0.3722 -0.9252
usemtl None
s off
f 49//1 16//1 1//1 19//1
f 23//2 3//2 4//2 25//2
f 25//3 4//3 5//3 27//3
f 27//4 5//4 6//4 29//4
f 29//5 6//5 7//5 31//5
f 31//6 7//6 8//6 33//6
f 33//7 8//7 9//7 35//7
f 35//8 9//8 10//8 37//8
f 37//9 10//9 11//9 39//9
f 39//10 11//10 12//10 41//10
f 41//11 12//11 13//11 43//11
f 43//12 13//12 14//12 45//12
f 45//13 14//13 15//13 47//13
f 47//14 15//14 16//14 49//14
f 54//15 17//15 56//15
f 21//16 2//16 3//16 23//16
f 19//17 1//17 2//17 21//17
f 80//18 17//18 51//18
f 2//19 53//19 55//19 3//19
f 3//20 55//20 57//20 4//20
f 4//21 57//21 59//21 5//21
f 6//22 61//22 63//22 7//22
f 7//23 63//23 65//23 8//23
f 8//24 65//24 67//24 9//24
f 9//25 67//25 69//25 10//25
f 68//26 17//26 70//26
f 10//27 69//27 71//27 11//27
f 11//28 71//28 73//28 12//28
f 12//29 73//29 75//29 13//29
f 13//30 75//30 77//30 14//30
f 14//31 77//31 79//31 15//31
f 15//32 79//32 81//32 16//32
f 16//33 81//33 50//33 1//33
f 56//34 17//34 58//34
f 5//35 59//35 61//35 6//35
f 58//36 17//36 60//36
f 60//37 17//37 62//37
f 62//38 17//38 64//38
f 64//39 17//39 66//39
f 66//40 17//40 68//40
f 70//41 17//41 72//41
f 72//42 17//42 74//42
f 74//43 17//43 76//43
f 76//44 17//44 78//44
f 78//45 17//45 80//45
f 52//46 17//46 54//46
f 51//47 17//47 52//47
f 19//48 21//48 20//48 18//48
f 21//49 23//49 22//49 20//49
f 23//50 25//50 24//50 22//50
f 25//51 27//51 26//51 24//51
f 27//52 29//52 28//52 26//52
f 29//53 31//53 30//53 28//53
f 31//54 33//54 32//54 30//54
f 33//55 35//55 34//55 32//55
f 35//56 37//56 36//56 34//56
f 37//57 39//57 38//57 36//57
f 39//58 41//58 40//58 38//58
f 41//59 43//59 42//59 40//59
f 43//60 45//60 44//60 42//60
f 45//61 47//61 46//61 44//61
f 47//62 49//62 48//62 46//62
f 49//63 19//63 18//63 48//63
f 18//64 20//64 22//64 24//64 26//64 28//64 30//64 32//64 34//64 36//64 38//64 40//64 42//64 44//64 46//64 48//64
f 51//65 52//65 53//65 50//65
f 52//66 54//66 55//66 53//66
f 54//67 56//67 57//67 55//67
f 56//68 58//68 59//68 57//68
f 58//69 60//69 61//69 59//69
f 60//70 62//70 63//70 61//70
f 62//71 64//71 65//71 63//71
f 64//72 66//72 67//72 65//72
f 66//73 68//73 69//73 67//73
f 68//74 70//74 71//74 69//74
f 70//75 72//75 73//75 71//75
f 72//76 74//76 75//76 73//76
f 74//77 76//77 77//77 75//77
f 76//78 78//78 79//78 77//78
f 78//79 80//79 81//79 79//79
f 80//80 51//80 50//80 81//80
f 1//81 50//81 53//81 2//81
